<svg xmlns="http://www.w3.org/2000/svg" width="308" height="195" viewBox="0 0 308 195"><defs><linearGradient id="o5kia" x1="28" x2="227" y1="117" y2="117" gradientUnits="userSpaceOnUse"><stop offset=".74" stop-color="#171717"/><stop offset=".85" stop-color="#171717" stop-opacity=".83"/><stop offset=".92" stop-color="#171717" stop-opacity=".59"/><stop offset="1" stop-color="#171717" stop-opacity="0"/></linearGradient><mask id="o5kic" width="2" height="2" x="-1" y="-1"><path fill="#fff" d="M28 54h199v63H28z"/><path d="M28 117l14-49 92.5-7 92.5-7L92.5 80z"/></mask><filter id="o5kib" width="227.57" height="91.36" x="13.9" y="39.75" filterUnits="userSpaceOnUse"><feOffset dx=".37" dy="-.15" in="SourceGraphic" result="FeOffset1082Out"/><feGaussianBlur in="FeOffset1082Out" result="FeGaussianBlur1083Out" stdDeviation="1.6418750762939454 1.6418750762939454"/></filter><mask id="o5kie" width="2" height="2" x="-1" y="-1"><path fill="#fff" d="M28 54h199v63H28z"/><path d="M28 117l14-49 92.5-7 92.5-7L92.5 80z"/></mask><filter id="o5kid" width="243.75" height="106.74" x="6.46" y="31.79" filterUnits="userSpaceOnUse"><feOffset dx="1.67" dy="-.67" in="SourceGraphic" result="FeOffset1093Out"/><feGaussianBlur in="FeOffset1093Out" result="FeGaussianBlur1094Out" stdDeviation="4.615000152587891 4.615000152587891"/></filter><mask id="o5kig" width="2" height="2" x="-1" y="-1"><path fill="#fff" d="M28 54h199v63H28z"/><path d="M28 117l14-49 92.5-7 92.5-7L92.5 80z"/></mask><filter id="o5kif" width="285.13" height="146.6" x="-12.95" y="11.35" filterUnits="userSpaceOnUse"><feOffset dx="4.23" dy="-1.69" in="SourceGraphic" result="FeOffset1104Out"/><feGaussianBlur in="FeOffset1104Out" result="FeGaussianBlur1105Out" stdDeviation="12.380625152587891 12.380625152587891"/></filter></defs><g><g><g/><g><g><path fill="url(#o5kia)" d="M227 54v63H28l62.5-38z"/></g><g><g filter="url(#o5kib)"><path fill="none" d="M28 117l14-49 92.5-7 92.5-7L92.5 80z" mask="url(&quot;#o5kic&quot;)"/><path fill-opacity=".09" d="M28 117l14-49 92.5-7 92.5-7L92.5 80z"/></g><g filter="url(#o5kid)"><path fill="none" d="M28 117l14-49 92.5-7 92.5-7L92.5 80z" mask="url(&quot;#o5kie&quot;)"/><path fill-opacity=".14" d="M28 117l14-49 92.5-7 92.5-7L92.5 80z"/></g><g filter="url(#o5kif)"><path fill="none" d="M28 117l14-49 92.5-7 92.5-7L92.5 80z" mask="url(&quot;#o5kig&quot;)"/><path fill-opacity=".2" d="M28 117l14-49 92.5-7 92.5-7L92.5 80z"/></g><path fill="#f46036" d="M28 117l14-49 92.5-7 92.5-7L92.5 80z"/></g></g><g><g><g><path fill="#fff" d="M243.447 3.692l-1.12-3.812-2.395 3.17-12.425 16.441-1.713 2.267.014.004-7.727 10.273-.577.768h-.001l-.709.934-8.198 10.804-.907 1.195-42.976-6.07-3.833-.542 1.777 3.44 4.496 8.705.413.8.873.22 18.69 4.728 12.556-.95-29.392-7.434-2.306-4.465 61.698 8.715.784-3.916-16.874-4.397 5.677-7.481 15.773 2.205.781-3.916-12.754-3.324 5.987-7.96 10.015 1.8.95-3.877-7.613-2.38 8.317-11.006 13.648 46.495.286.972.953.345 43.238 15.635-39.443 25.926-.876.576-.025 1.048-1.134 47.685L223.943 117h-5.916l-44.49 12.882L178.041 117h-4.237l-5.322 15.221-1.28 3.659 3.724-1.078 50.553-14.637 36.448 33.048 3.239 2.936.104-4.37 1.213-51.008 41.905-27.544 3.338-2.194-3.757-1.359-46.04-16.648z"/></g></g></g><g/></g></g></svg>