<svg xmlns="http://www.w3.org/2000/svg" viewBox="0 0 120 48"><defs><linearGradient id="ia2xa" x1="6.3" x2="37.23" y1="42.07" y2="41.33" gradientUnits="userSpaceOnUse"><stop offset="0" stop-color="#bfbfbf" stop-opacity="0"/><stop offset=".36" stop-color="#5a5863" stop-opacity=".46"/><stop offset="1" stop-color="#202028"/></linearGradient></defs><g><g><g/><g><g><path fill="url(#ia2xa)" d="M6.29 41.481l13.433-2.09-3.161.132 1.788-1.25 3.643.187-3.383-.38 1.288-.893 2.312.167-2.13-.302 2.262-1.362 3.053 2.521 11.742-.775-8.953 4.13.543 3.767-9.011-.605-10.792 3.286 1.016-1.44 4.038-.632-3.782.105.474-.702 5.085-.671-4.833.221.55-.81 4.927-.788-4.857.275-1.129-.403 7.274-1.25-8.042.986-1.3-.5 10.265-1.738L7.178 41.9z"/></g><g><path fill="#333" d="M27.1 28.93l11.086-6.614 1.781-.206-11.932 7.556z"/></g><g><path fill="#585858" d="M27.07 29l.857.675-.008 15.83-.869-.62z"/></g><g><path fill="#fff" d="M0 12.63l18.884 2.669-5.699-1.49 2.362-3.115 4.88.683-4.507-1.175 2.455-3.266 3.236.581-2.98-.93 3.585-4.737 4.251 14.5 13.546 4.9-12.328 8.107-.357 15.008-10.741-9.744-14.876 4.31 1.796-5.14 8.08 1.16-7.774-2.037 1.036-2.971 8.72 1.17-8.367-2.183 1.04-2.975 8.801 1.268-8.491-2.153-1.882-3.534 11.793 1.762L3.964 20.21l-1.559-2.925 15.276 1.998-16.385-4.147z"/></g><g><path fill="#fff" d="M41.15 0h78.847v45.603H41.15zm8.662 24.528c1.567.539 3.336.647 4.783.962 3.871.841 5.17 2.335 4.46 4.856-.899 3.17-7.784 3.76-13.894-.62l-.035 4.042c8.379 4.294 17.363 1.928 17.922-4.512.236-2.723-1.28-5.078-4.85-6.078a46.21 46.21 0 0 0-5.104-1.114c-3.491-.605-4.581-2.936-3.635-4.98 1.416-3.069 7.7-3.111 12.68.527l-.015-4.007c-7.16-3.022-16.16-2.052-16.765 4.9-.268 3.06 1.773 4.957 4.453 6.024zm15.373-9.512h3.41v17.778H65.18v2.638H75.81l-.024-2.623h-3.27l-.081-17.785 3.375.007v-2.583H65.18zm14.535 20.35h17.968l2.397-6.451 9.605.004 2.451 6.447h3.864l-8.875-22.96h-4.395l-7.832 20.05-11.521-.166-.105-19.877-3.557-.008zm25.036-19.54l4.046 10.4h-7.86z"/></g></g></g></g></svg>