<svg xmlns="http://www.w3.org/2000/svg" width="267" height="238" viewBox="0 0 267 238"><defs><mask id="jh0kb" width="2" height="2" x="-1" y="-1"><path fill="#fff" d="M17 21h224v194H17z"/><path d="M129 21l112 193.99H17z"/></mask><filter id="jh0ka" width="252.57" height="222.36" x="2.9" y="6.75" filterUnits="userSpaceOnUse"><feOffset dx=".37" dy="-.15" in="SourceGraphic" result="FeOffset1137Out"/><feGaussianBlur in="FeOffset1137Out" result="FeGaussianBlur1138Out" stdDeviation="1.6418750762939454 1.6418750762939454"/></filter><mask id="jh0kd" width="2" height="2" x="-1" y="-1"><path fill="#fff" d="M17 21h224v194H17z"/><path d="M129 21l112 193.99H17z"/></mask><filter id="jh0kc" width="268.75" height="237.74" x="-4.54" y="-1.21" filterUnits="userSpaceOnUse"><feOffset dx="1.67" dy="-.67" in="SourceGraphic" result="FeOffset1148Out"/><feGaussianBlur in="FeOffset1148Out" result="FeGaussianBlur1149Out" stdDeviation="4.615000152587891 4.615000152587891"/></filter><mask id="jh0kf" width="2" height="2" x="-1" y="-1"><path fill="#fff" d="M17 21h224v194H17z"/><path d="M129 21l112 193.99H17z"/></mask><filter id="jh0ke" width="310.13" height="277.6" x="-23.95" y="-21.65" filterUnits="userSpaceOnUse"><feOffset dx="4.23" dy="-1.69" in="SourceGraphic" result="FeOffset1159Out"/><feGaussianBlur in="FeOffset1159Out" result="FeGaussianBlur1160Out" stdDeviation="12.380625152587891 12.380625152587891"/></filter></defs><g><g><g><g filter="url(#jh0ka)"><path fill="none" d="M129 21l112 193.99H17z" mask="url(&quot;#jh0kb&quot;)"/><path fill-opacity=".09" d="M129 21l112 193.99H17z"/></g><g filter="url(#jh0kc)"><path fill="none" d="M129 21l112 193.99H17z" mask="url(&quot;#jh0kd&quot;)"/><path fill-opacity=".14" d="M129 21l112 193.99H17z"/></g><g filter="url(#jh0ke)"><path fill="none" d="M129 21l112 193.99H17z" mask="url(&quot;#jh0kf&quot;)"/><path fill-opacity=".2" d="M129 21l112 193.99H17z"/></g><path fill="#282834" d="M129 21l112 193.99H17z"/></g><g><path fill="#fff" d="M121.57 95.72h14.938l-2.511 63.324h-10.048zm7.535 93.334c-2.468 0-4.539-.794-6.213-2.38-1.675-1.675-2.512-3.702-2.512-6.081 0-2.38.837-4.363 2.512-5.95 1.674-1.674 3.745-2.511 6.213-2.511s4.495.837 6.081 2.512c1.587 1.586 2.38 3.569 2.38 5.949s-.837 4.406-2.512 6.08c-1.586 1.587-3.57 2.38-5.949 2.38z"/></g></g></g></svg>