<svg xmlns="http://www.w3.org/2000/svg" width="348" height="368" viewBox="0 0 348 368"><g><g><path fill="#fff" d="M0 93.301L164.233 116.4l-49.56-12.859 20.546-26.96 42.441 5.91-39.202-10.173 21.355-28.27 28.137 5.037-25.876-8.058L193.213 0l37.01 125.532L348 167.935l-107.217 70.169L237.679 368l-93.418-84.337-129.383 37.3 15.62-44.485 70.275 10.005-67.61-17.592 9.009-25.718 75.841 10.14-72.738-18.902 9.042-25.785 76.516 10.979-73.85-18.634-16.363-30.552 102.561 15.243-108.702-26.725-13.562-25.348 132.858 17.324-142.507-35.89z"/></g></g></svg>