<svg xmlns="http://www.w3.org/2000/svg" viewBox="0 0 30 37.5">
  <path fill="#fff" d="M11,28c0,1.1-0.9,2-2,2H2c-1.1,0-2-0.9-2-2v-7c0-1.1,0.9-2,2-2h7c1.1,0,2,0.9,2,2V28z"/>
  <path fill="#fff" d="M30,23H14c-0.6,0-1-0.4-1-1v-1c0-0.6,0.4-1,1-1h16V23z"/>
  <path fill="#fff" d="M26,28H14c-0.6,0-1-0.4-1-1v-1c0-0.6,0.4-1,1-1h12V28z"/>
  <path fill="#fff" d="M11,13c0,1.1-0.9,2-2,2H2c-1.1,0-2-0.9-2-2V6c0-1.1,0.9-2,2-2h7c1.1,0,2,0.9,2,2V13z"/>
  <path fill="#fff" d="M30,8H14c-0.6,0-1-0.4-1-1V6c0-0.6,0.4-1,1-1h16V8z"/>
  <path fill="#fff" d="M26,13H14c-0.6,0-1-0.4-1-1v-1c0-0.6,0.4-1,1-1h12V13z"/>
</svg>