<svg xmlns="http://www.w3.org/2000/svg" width="120" height="237" viewBox="0 0 120 237"><g><g><g/><g><g><path fill="#fff" d="M96.12 199.2H24.266L21 187.04h78.39z"/></g><g><path fill="#fff" d="M83.931 237.049H36.466L26.2 203.66h67.997z"/></g></g><g><path fill="#fff" d="M103.89 42.364A113.591 113.591 0 0 0 63 1.808L59.994.07 56.99 1.808A112.906 112.906 0 0 0 .52 99.642c0 1.292.023 2.604.066 3.9.597 17.571 7.317 32.356 19.433 42.757 9.271 7.959 21.164 12.818 33.978 13.977v20.726h12v-96H53.995V148.2c-20.274-2.349-40.452-16.671-41.416-45.066-.04-1.16-.06-2.335-.06-3.492a101.358 101.358 0 0 1 47.476-85.638 101.357 101.357 0 0 1 47.475 85.638c0 1.157-.02 2.332-.06 3.493-.771 22.715-13.84 36.422-29.416 42.201v12.7a58.563 58.563 0 0 0 21.977-11.738c12.116-10.4 18.836-25.185 19.433-42.756.044-1.296.066-2.608.066-3.9a112.857 112.857 0 0 0-15.58-57.278z"/></g></g></g></svg>