<svg xmlns="http://www.w3.org/2000/svg" width="194" height="138" viewBox="0 0 194 138"><g><g><g/><g><path fill="#fff" d="M14.5 63H97v12.5H14.5z"/></g><g><path fill="#fff" d="M.75 31.75H69.5v12.5H.75z"/></g><g><path fill="#fff" d="M192.691 66.787a5.75 5.75 0 0 1 .557 2.463V113c0 1.658-.724 3.247-2.014 4.419-1.289 1.173-3.038 1.831-4.861 1.831h-14.726c-1.496 5.364-4.916 10.121-9.72 13.52-4.804 3.398-10.717 5.243-16.804 5.243-6.087 0-12-1.845-16.804-5.243-4.804-3.399-8.224-8.156-9.72-13.52H75.397c-1.674 5.892-5.653 11.026-11.193 14.441-5.54 3.415-12.26 4.876-18.9 4.11-6.64-.767-12.744-3.709-17.168-8.275-4.425-4.565-6.866-10.441-6.866-16.526 0-6.085 2.441-11.961 6.866-16.526 4.424-4.566 10.529-7.508 17.169-8.275 6.64-.766 13.36.695 18.9 4.11 5.539 3.415 9.518 8.549 11.192 14.441h43.202c.915-3.186 2.515-6.177 4.707-8.798 2.193-2.622 4.934-4.823 8.067-6.477V13H28.248V.5h110c1.823 0 3.572.658 4.861 1.83 1.29 1.173 2.014 2.762 2.014 4.42v12.5h20.625c1.345 0 2.661.358 3.785 1.031 1.123.674 2.004 1.632 2.533 2.757zm-134.1 55.048c2.579-2.343 4.028-5.521 4.032-8.835 0-2.472-.806-4.889-2.317-6.945-1.511-2.055-3.659-3.657-6.171-4.603a15.025 15.025 0 0 0-7.944-.712c-2.668.482-5.118 1.673-7.04 3.421-1.924 1.748-3.233 3.976-3.764 6.4a11.452 11.452 0 0 0 .783 7.223c1.04 2.284 2.803 4.236 5.064 5.609 2.261 1.374 4.92 2.107 7.639 2.107 3.646-.003 7.14-1.321 9.719-3.665zM145.124 63h30.828l-14.74-31.25h-16.088zm9.719 58.835c2.578-2.343 4.027-5.521 4.031-8.835 0-2.472-.806-4.889-2.317-6.945-1.511-2.055-3.659-3.657-6.171-4.603a15.024 15.024 0 0 0-7.944-.712c-2.668.482-5.118 1.673-7.041 3.421-1.923 1.748-3.232 3.976-3.763 6.4a11.453 11.453 0 0 0 .783 7.223c1.04 2.284 2.803 4.236 5.064 5.609 2.261 1.374 4.92 2.107 7.639 2.107 3.646-.003 7.141-1.321 9.719-3.665zM179.498 75.5h-34.375V88c6.081.015 11.983 1.865 16.784 5.258 4.8 3.393 8.225 8.138 9.74 13.492h7.851z"/></g></g></g></svg>