<svg xmlns="http://www.w3.org/2000/svg" viewBox="0 0 26 26">
  <path fill="#fff" fill-rule="nonzero" d="M18.84 6.73c-0.28,-0.27 -0.66,-0.43 -1.06,-0.43 -0.19,0 -0.39,0.04 -0.57,0.12l-0.03 0 -12.1 4.73 -0.03 0.02c-0.54,0.23 -0.9,0.77 -0.9,1.37 0,0.39 0.16,0.77 0.44,1.05 0.12,0.13 0.27,0.23 0.43,0.3l0.06 0.03 0 0 3.57 1.49c0.03,0.01 0.05,0.01 0.08,0.02 0.03,0.01 0.04,0.02 0.06,0.03 0.09,0.03 0.18,0.07 0.27,0.12l0.1 0.05 0.07 0.05 0.03 0.01 0 0c0.06,0.04 0.11,0.09 0.17,0.13 0.03,0.02 0.05,0.04 0.07,0.07 0.03,0.02 0.06,0.05 0.09,0.08 0.03,0.03 0.04,0.04 0.06,0.06l0 0.03 0.1 0.09 0.06 0.08c0.14,0.19 0.25,0.4 0.32,0.62 0,0.02 0.01,0.03 0.01,0.04 0,0 0,0.01 0,0.01 0,0 0,0.01 0,0.01l1.48 3.53c0.21,0.59 0.77,0.99 1.41,0.99 0.39,0 0.77,-0.16 1.05,-0.43 0.15,-0.16 0.27,-0.35 0.35,-0.56l4.72 -12.05c0,-0.01 0,-0.02 0.01,-0.03 0.07,-0.18 0.11,-0.38 0.11,-0.57 0,-0.4 -0.16,-0.78 -0.44,-1.06l0.01 0zm-5.79 13.15l0 0.02c-0.01,0.01 -0.01,0.02 -0.01,0.03l0 0c0,0 0,-0.01 0,-0.02 0,-0.01 0,-0.03 -0.02,-0.04l-1.48 -3.53 0 0c-0.12,-0.35 -0.3,-0.69 -0.52,-1l-0.03 -0.04 -0.01 -0.03 -0.2 -0.22 -0.12 -0.12 -0.13 -0.13c-0.05,-0.04 -0.1,-0.09 -0.15,-0.13 -0.09,-0.07 -0.17,-0.13 -0.27,-0.19l-0.02 -0.02 -0.17 -0.11 0 0c-0.05,-0.03 -0.09,-0.05 -0.15,-0.08 -0.15,-0.08 -0.31,-0.15 -0.47,-0.21l-0.04 -0.01 -0.03 -0.02 -3.59 -1.49 0 0 0 0 12.08 -4.73 0.03 -0.01 0.03 -0.01c0,0.01 0,0.02 -0.02,0.03 0,0.01 0,0.02 0,0.02l-4.71 12.04z"/>
  <circle fill="none" stroke="#fff" stroke-width="1.25" stroke-miterlimit="22.9256" cx="13" cy="13" r="11.87"/>
</svg>
