<svg xmlns="http://www.w3.org/2000/svg" viewBox="0 0 138 124"><g><g><path fill="#fff" d="M138 31c-.27 8.396-3.751 15.662-10.444 21.797C120.862 58.932 112.844 62 103.5 62c-2.605 0-5.3-.323-8.086-.969.719 2.503 2.224 4.582 4.515 6.237 2.291 1.655 4.919 2.482 7.884 2.482l12.937 11.625 11.051 10.293c4.133 3.713 6.199 8.174 6.199 13.381 0 5.207-2.066 9.647-6.199 13.32s-9.097 5.51-14.892 5.51-10.759-1.816-14.891-5.449l-11.456-9.93-12.937-11.625c0-3.23-1.258-5.974-3.773-8.234-2.516-2.26-5.57-3.391-9.165-3.391l-.943-.848v-.12L30.457 122.91c-.898.727-4.784 1.09-11.657 1.09s-10.714-.363-11.523-1.09l-6.064-5.328C.404 116.775 0 113.283 0 107.107c0-6.175.404-9.667 1.213-10.474l56.601-39.356L28.705 31H12.937L0 7.75 8.625 0 34.5 11.625v14.047l29.918 27.004 8.894-6.176c0-.08.045-.121.135-.121h.135C70.527 41.535 69 36.409 69 31c0-8.396 3.392-15.621 10.175-21.676C85.958 3.27 94.066.161 103.5 0v4.602l-11.05 9.445c-4.134 3.713-6.2 8.174-6.2 13.38 0 5.208 2.066 9.668 6.2 13.382 4.132 3.713 9.118 5.57 14.958 5.57s10.826-1.857 14.959-5.57L132.744 31zM17.25 100.75c-2.426 0-4.47.747-6.132 2.24-1.662 1.494-2.493 3.31-2.493 5.449 0 2.14.831 3.976 2.493 5.51 1.662 1.534 3.706 2.301 6.132 2.301 2.426 0 4.47-.767 6.132-2.301 1.662-1.534 2.493-3.37 2.493-5.51 0-2.139-.831-3.955-2.493-5.449-1.662-1.493-3.706-2.24-6.132-2.24z"/></g></g></svg>