<svg xmlns="http://www.w3.org/2000/svg" viewBox="0 0 26 26">
	<path fill="#fff" d="M18.708 25.499c-1.78-.029-7.963-.499-12.835-5.371C1 15.254.529 9.071.5 7.291A2.498 2.498 0 0 1 1.233 5.5l3.389-3.39a1.287 1.287 0 0 1 1.767 0l5 5a1.249 1.249 0 0 1 0 1.767L9.397 10.87c.275.923.9 2.647 1.992 3.74 1.093 1.092 2.816 1.717 3.74 1.992l1.992-1.992a1.25 1.25 0 0 1 1.768 0l5 5a1.248 1.248 0 0 1 0 1.767l-3.39 3.39a2.47 2.47 0 0 1-1.756.733zM3 7.266c.025 1.529.433 6.885 4.64 11.093 4.194 4.195 9.532 4.613 11.091 4.64l2.508-2.506-3.232-3.233-1.617 1.616a1.244 1.244 0 0 1-1.14.339c-.143-.03-3.552-.764-5.627-2.839-2.075-2.075-2.809-5.484-2.839-5.627a1.245 1.245 0 0 1 .339-1.14l1.616-1.617L5.507 4.76zM23 11.75c0-5.07-3.685-8.749-8.762-8.749V.5c6.42 0 11.262 4.836 11.262 11.249z"/>
	<path fill="#fff" d="M14.25 8C16.879 8 18 9.121 18 11.75h2.5c0-4.031-2.219-6.25-6.25-6.25z"/>
</svg>